
 
http://www.imdb.com/title/tt1291580/


Based on the autobiographical novel, the tempestuous 6-year relationship between Liberace and his (much younger) lover, Scott Thorson, is recounted. 



Director:
 Steven Soderbergh 

Writers:
 Richard LaGravenese (screenplay), Scott Thorson (book)

Stars:
 Matt Damon, Scott Bakula, Eric Zuckerman 

Genres:
  Biography |  Drama |  Romance 

Country:
 USA 

Language:
 English 



Behind the Candelabra 2013 HDRip XViD AC3 ReLeNTLesS



 iMDB:  http://www.imdb.com/title/tt1291580/

GENRAL iNF0
 Complete name                            : Behind.the.Candelabra.2013.HDRip.XViD.AC3.ReLeNTLesS.avi
 Format                                   : AVI
 Format/Info                              : Audio Video Interleave
 File size                                : 1.08 GiB
 Duration                                 : 1h 58mn
 Overall bit rate                         : 1 308 Kbps
ViDE0 iNF0
 ID                                       : 0
 Format                                   : MPEG-4 Visual
 Format profile                           : Advanced Simple@L5
 Format settings, BVOP                    : 2
 Format settings, QPel                    : No
 Format settings, GMC                     : No warppoints
 Format settings, Matrix                  : Default (H.263)
 Codec ID                                 : XVID
 Codec ID/Hint                            : XviD
 Duration                                 : 1h 58mn
 Bit rate                                 : 916 Kbps
 Width                                    : 720 pixels
 Height                                   : 400 pixels
 Display aspect ratio                     : 16:9
 Frame rate                               : 23.976 fps
 Color space                              : YUV
 Chroma subsampling                       : 4:2:0
 Bit depth                                : 8 bits
 Scan type                                : Progressive
 Compression mode                         : Lossy
 Bits/(Pixel*Frame)                       : 0.133
 Stream size                              : 776 MiB (70%)
 Writing library                          : XviD 1.2.1 (UTC 2008-12-04)
AUDi0 iNF0
 ID                                       : 1
 Format                                   : AC-3
 Format/Info                              : Audio Coding 3
 Mode extension                           : CM (complete main)
 Format settings, Endianness              : Big
 Codec ID                                 : 2000
 Duration                                 : 1h 58mn
 Bit rate mode                            : Constant
 Bit rate                                 : 384 Kbps
 Channel(s)                               : 6 channels
 Channel positions                        : Front: L C R, Side: L R, LFE
 Sampling rate                            : 48.0 KHz
 Bit depth                                : 16 bits
 Compression mode                         : Lossy
 Stream size                              : 325 MiB (29%)
 Alignment                                : Aligned on interleaves
 Interleave, duration                     : 64 ms (1.53 video frames)
 Interleave, preload duration             : 192 ms
 Title                                    : Behind.the.Candelabra.english.audio
 Sample Included                             :  Yes





    	http://addpix.net/viewer.php?file=62212543445485603629.jpg
    	http://addpix.net/viewer.php?file=74482181582167700364.jpg
    	http://addpix.net/viewer.php?file=91783025028828157125.jpg
    	http://addpix.net/viewer.php?file=53011048710677279355.jpg
    	http://addpix.net/viewer.php?file=73260276744772983612.jpg
    	http://addpix.net/viewer.php?file=66665869461271842586.jpg